# This file uses centimeters as units for non-parametric coordinates.

mtllib Candy_1.mtl
g default
v -0.983983 -1.007907 28.164929
v -0.983983 -1.361266 27.811569
v -1.229948 -0.566218 27.723240
v -1.229948 -0.919578 27.369881
v -1.229948 -0.566218 24.189291
v -1.229948 -0.919578 24.542650
v -0.983983 -1.361266 24.100962
v -0.983983 -1.007907 23.747602
v -1.229948 2.614372 27.369881
v -1.229948 2.261012 27.723240
v -0.983983 3.056060 27.811569
v -0.983983 2.702701 28.164929
v -1.229948 2.261012 24.189291
v -1.229948 2.614372 24.542650
v -0.983983 2.702701 23.747602
v -0.983983 3.056060 24.100962
v 1.229948 -0.566218 27.723240
v 1.229948 -0.919578 27.369881
v 0.983983 -1.361266 27.811569
v 0.983983 -1.007907 28.164929
v 0.983983 -1.007907 23.747602
v 0.983983 -1.361266 24.100962
v 1.229948 -0.566218 24.189291
v 1.229948 -0.919578 24.542650
v 0.983983 2.702701 28.164929
v 0.983983 3.056060 27.811569
v 1.229948 2.614372 27.369881
v 1.229948 2.261012 27.723240
v 0.983983 3.056060 24.100962
v 0.983983 2.702701 23.747602
v 1.229948 2.261012 24.189291
v 1.229948 2.614372 24.542650
v 0.102411 -2.432565 29.589587
v 0.102411 -2.785925 29.236227
v -0.093869 -2.786720 29.237023
v -0.093869 -2.433361 29.590383
v -0.093869 -2.433361 22.322148
v -0.093869 -2.786720 22.675508
v 0.102411 -2.785925 22.676304
v 0.102411 -2.432565 22.322944
v -0.093869 4.128155 29.590383
v -0.093869 4.481514 29.237023
v 0.102411 4.480719 29.236227
v 0.102411 4.127359 29.589587
v -0.093869 4.481514 22.675508
v -0.093869 4.128155 22.322148
v 0.102411 4.127359 22.322944
v 0.102411 4.480719 22.676304
vt 0.149998 0.044996
vt 0.169996 0.024998
vt 0.330004 0.024998
vt 0.330004 0.225002
vt 0.169996 0.225002
vt 0.149998 0.205004
vt 0.649997 0.044996
vt 0.669996 0.024998
vt 0.830004 0.024998
vt 0.850003 0.044996
vt 0.850002 0.205004
vt 0.830004 0.225002
vt 0.399998 0.000000
vt 0.477770 0.000000
vt 0.390383 0.990385
vt 0.375000 0.975003
vt 0.375000 0.955004
vt 0.375000 0.774997
vt 0.389284 0.760713
vt 0.350003 0.205004
vt 0.375000 0.475002
vt 0.375000 0.455004
vt 0.625000 0.975003
vt 0.610716 0.989287
vt 0.600003 0.000000
vt 0.523105 0.000000
vt 0.625000 0.774997
vt 0.625000 0.794996
vt 0.621429 0.239287
vt 0.669996 0.225002
vt 0.610716 0.489287
vt 0.625000 0.475002
vt 0.510408 0.999993
vt 0.490505 1.000000
vt 0.375000 0.794996
vt 0.399998 0.769999
vt 0.350002 0.044996
vt 0.399998 0.019999
vt 0.375000 0.294996
vt 0.399998 0.269999
vt 0.625000 0.955004
vt 0.600003 0.980002
vt 0.649997 0.205004
vt 0.600003 0.230002
vt 0.625000 0.294996
vt 0.625000 0.455004
vt 0.600003 0.480002
vt 0.375000 0.544997
vt 0.399998 0.519998
vt 0.375000 0.705004
vt 0.625000 0.544996
vt 0.625000 0.705004
vt 0.600003 0.730002
vt 0.490460 0.987846
vt 0.510408 0.762157
vt 0.510408 0.012157
vt 0.490460 0.237846
vt 0.510408 0.262157
vt 0.490460 0.487846
vt 0.510408 0.512157
vt 0.490460 0.737846
vt 0.490460 0.012158
vt 0.399998 0.230001
vt 0.490460 0.262145
vt 0.399998 0.480001
vt 0.490460 0.512158
vt 0.399998 0.730001
vt 0.490460 0.762154
vt 0.399998 0.980002
vt 0.510408 0.237843
vt 0.600003 0.019998
vt 0.510408 0.487843
vt 0.600003 0.269998
vt 0.510408 0.737843
vt 0.600003 0.519998
vt 0.510408 0.987844
vt 0.600003 0.769999
vn -1.000000 -0.000000 0.000000
vn -1.000000 -0.000000 0.000000
vn -1.000000 -0.000000 0.000000
vn -1.000000 -0.000000 0.000000
vn -1.000000 -0.000000 0.000000
vn -1.000000 -0.000000 0.000000
vn -1.000000 -0.000000 0.000000
vn -1.000000 -0.000000 0.000000
vn 1.000000 -0.000000 0.000000
vn 1.000000 -0.000000 0.000000
vn 1.000000 -0.000000 0.000000
vn 1.000000 -0.000000 0.000000
vn 1.000000 -0.000000 0.000000
vn 1.000000 -0.000000 0.000000
vn 1.000000 -0.000000 0.000000
vn 1.000000 -0.000000 0.000000
vn -0.918587 -0.279461 0.279461
vn -0.918587 -0.279461 0.279461
vn -0.914792 -0.285618 0.285618
vn -0.914792 -0.285618 0.285618
vn -0.930462 -0.259075 0.259075
vn -0.930462 -0.259075 0.259075
vn -0.930462 -0.259075 -0.259075
vn -0.930462 -0.259075 -0.259075
vn -0.918587 -0.279461 -0.279461
vn -0.918587 -0.279461 -0.279461
vn -0.914792 -0.285618 -0.285618
vn -0.914792 -0.285618 -0.285618
vn -0.930462 0.259075 0.259075
vn -0.886439 0.031889 0.461746
vn -0.862075 0.027243 0.506048
vn -0.918587 0.279461 0.279461
vn -0.914792 0.285618 0.285618
vn -0.914792 0.285618 0.285618
vn -0.886439 0.031889 -0.461746
vn -0.930462 0.259075 -0.259075
vn -0.918587 0.279461 -0.279461
vn -0.862075 0.027243 -0.506048
vn -0.914792 0.285618 -0.285618
vn -0.914792 0.285618 -0.285618
vn 0.930462 -0.259075 0.259075
vn 0.930462 -0.259075 0.259075
vn 0.919604 -0.277785 0.277785
vn 0.919604 -0.277785 0.277785
vn 0.916139 -0.283451 0.283451
vn 0.916139 -0.283451 0.283451
vn 0.919604 -0.277785 -0.277785
vn 0.919604 -0.277785 -0.277785
vn 0.916139 -0.283451 -0.283451
vn 0.916139 -0.283451 -0.283451
vn 0.930462 -0.259075 -0.259075
vn 0.930462 -0.259075 -0.259075
vn 0.863931 0.027101 0.502880
vn 0.919604 0.277785 0.277785
vn 0.916139 0.283451 0.283451
vn 0.916139 0.283451 0.283451
vn 0.886439 0.031889 0.461746
vn 0.930462 0.259075 0.259075
vn 0.919604 0.277785 -0.277785
vn 0.863932 0.027101 -0.502880
vn 0.916139 0.283451 -0.283451
vn 0.916139 0.283451 -0.283451
vn 0.930462 0.259075 -0.259075
vn 0.886439 0.031889 -0.461746
vn 0.005730 -0.707096 0.707095
vn 0.005730 -0.707095 0.707095
vn 0.005730 -0.707096 0.707095
vn 0.005730 -0.707095 0.707095
vn 0.005729 -0.707095 -0.707095
vn 0.005729 -0.707096 -0.707095
vn 0.005729 -0.707095 -0.707095
vn 0.005729 -0.707096 -0.707095
vn 0.005729 0.707095 0.707095
vn 0.005729 0.707096 0.707095
vn 0.005729 0.707095 0.707095
vn 0.005729 0.707096 0.707095
vn 0.005730 0.707096 -0.707095
vn 0.005730 0.707095 -0.707095
vn 0.005730 0.707096 -0.707095
vn 0.005730 0.707095 -0.707095
vn -0.849983 -0.526811 0.000000
vn -0.873668 -0.486523 0.000000
vn -0.873668 -0.486523 0.000000
vn -0.849983 -0.526811 0.000000
vn -0.873668 0.000000 0.486523
vn -0.849983 0.000000 0.526811
vn -0.873668 0.486523 0.000000
vn -0.849983 0.526811 0.000000
vn -0.849983 0.526811 0.000000
vn -0.873668 0.486523 0.000000
vn 0.873668 -0.486523 0.000000
vn 0.851983 -0.523570 0.000000
vn 0.851983 -0.523570 0.000000
vn 0.873668 -0.486523 0.000000
vn 0.851983 0.000000 0.523570
vn 0.873668 0.000000 0.486523
vn 0.851983 0.523570 0.000000
vn 0.873668 0.486523 0.000000
vn 0.873668 0.486523 0.000000
vn 0.851983 0.523570 0.000000
vn -0.849983 0.000000 -0.526811
vn -0.873668 0.000000 -0.486523
vn 0.873668 0.000000 -0.486523
vn 0.851983 0.000000 -0.523570
vn 0.004054 -0.999992 0.000000
vn 0.004054 -0.999992 0.000000
vn 0.004054 -0.999992 0.000000
vn 0.004054 -0.999992 0.000000
vn 0.004052 0.000000 0.999992
vn 0.004052 0.000000 0.999992
vn 0.004052 0.000000 0.999992
vn 0.004052 0.000000 0.999992
vn 0.004054 0.999992 0.000000
vn 0.004054 0.999992 0.000000
vn 0.004054 0.999992 0.000000
vn 0.004054 0.999992 0.000000
vn 0.004052 0.000000 -0.999992
vn 0.004052 0.000000 -0.999992
vn 0.004052 0.000000 -0.999992
vn 0.004052 0.000000 -0.999992
vn -0.848211 0.000000 0.529659
vn -0.848211 0.000000 0.529659
vn -0.848211 0.529659 0.000000
vn -0.848211 0.529659 0.000000
vn -0.848211 0.000000 -0.529659
vn -0.848211 0.000000 -0.529659
vn -0.848211 -0.529659 0.000000
vn -0.848211 -0.529659 0.000000
vn 0.850361 0.000000 0.526200
vn 0.850361 0.000000 0.526200
vn 0.850361 0.526200 0.000000
vn 0.850361 0.526200 0.000000
vn 0.850361 0.000000 -0.526200
vn 0.850361 0.000000 -0.526200
vn 0.850361 -0.526200 0.000000
vn 0.850361 -0.526200 0.000000
s off
g Candy_1
usemtl initialShadingGroup
f 5/1/1 6/2/2 4/3/3 3/37/4 10/20/5 9/4/6 14/5/7 13/6/8
f 17/7/9 18/8/10 24/9/11 23/10/12 31/11/13 32/12/14 27/30/15 28/43/16
s 1
f 1/38/17 2/13/18 35/14/19 36/62/20
f 2/69/18 1/15/17 3/16/21 4/17/22
s 2
f 6/35/23 5/18/24 8/19/25 7/36/26
f 7/36/26 8/67/25 37/61/27 38/68/28
s 3
f 9/4/29 10/20/30 12/63/31 11/40/32
f 11/40/32 12/63/31 41/57/33 42/64/34
s 4
f 13/21/35 14/22/36 16/65/37 15/49/38
f 15/49/38 16/65/37 45/59/39 46/66/40
s 5
f 18/41/41 17/23/42 20/24/43 19/42/44
f 19/25/44 20/71/43 33/56/45 34/26/46
s 6
f 21/53/47 22/77/48 39/55/49 40/74/50
f 22/77/48 21/53/47 23/27/51 24/28/52
s 7
f 25/44/53 26/73/54 43/58/55 44/70/56
f 26/29/54 25/44/53 28/43/57 27/30/58
s 8
f 29/47/59 30/75/60 47/60/61 48/72/62
f 30/31/60 29/47/59 32/46/63 31/32/64
s off
f 34/76/65 33/33/66 36/34/67 35/54/68
f 38/68/69 37/61/70 40/74/71 39/55/72
f 42/64/73 41/57/74 44/70/75 43/58/76
f 46/66/77 45/59/78 48/72/79 47/60/80
s 9
f 2/69/81 4/17/82 6/35/83 7/36/84
s 3
f 3/37/85 1/38/86 12/63/31 10/20/30
s 10
f 9/39/87 11/40/88 16/65/89 14/22/90
s 11
f 18/41/91 19/42/92 22/77/93 24/28/94
s 7
f 20/71/95 17/7/96 28/43/57 25/44/53
s 12
f 26/73/97 27/45/98 32/46/99 29/47/100
s 4
f 13/48/35 15/49/38 8/67/101 5/50/102
s 8
f 30/75/60 31/51/64 23/52/103 21/53/104
s off
f 34/76/105 35/54/106 38/68/107 39/55/108
f 36/62/109 33/56/110 44/70/111 41/57/112
f 42/64/113 43/58/114 48/72/115 45/59/116
f 46/66/117 47/60/118 40/74/119 37/61/120
s 3
f 1/38/86 36/62/121 41/57/122 12/63/31
s 10
f 11/40/88 42/64/123 45/59/124 16/65/89
s 4
f 15/49/38 46/66/125 37/61/126 8/67/101
s 9
f 7/36/84 38/68/127 35/54/128 2/69/81
s 7
f 44/70/129 33/56/130 20/71/95 25/44/53
s 12
f 48/72/131 43/58/132 26/73/97 29/47/100
s 8
f 40/74/133 47/60/134 30/75/60 21/53/104
s 11
f 34/76/135 39/55/136 22/77/93 19/42/92
