# This file uses centimeters as units for non-parametric coordinates.

mtllib CrackerStick_1_Single.mtl
g default
v -0.722468 14.938236 -20.905860
v -0.405610 17.708169 -21.222718
v 0.405610 17.708169 -21.222718
v 0.722468 14.938236 -20.905860
v -0.405610 17.708168 -22.033938
v -0.722468 14.938236 -22.350797
v 0.405610 17.708169 -22.033938
v 0.722468 14.938236 -22.350797
v -0.474569 0.011918 -21.153759
v -0.708071 0.063106 -20.920258
v -0.754921 2.256161 -20.873407
v 0.474569 0.011918 -21.153759
v 0.708071 0.063106 -20.920258
v 0.754921 2.256161 -20.873407
v -0.474569 0.011918 -22.102897
v -0.708071 0.063106 -22.336399
v -0.754921 2.256161 -22.383249
v 0.474569 0.011918 -22.102897
v 0.708071 0.063106 -22.336399
v 0.754921 2.256161 -22.383249
v -0.760489 8.540119 -20.867839
v 0.760489 8.540118 -22.388817
v 0.000000 2.256161 -22.634890
v -0.760489 8.540118 -22.388817
v 1.006561 2.256161 -21.628328
v -1.006561 2.256161 -21.628328
v -0.662176 0.026814 -20.966153
v -0.944094 0.063104 -21.628328
v -0.662176 0.026814 -22.290504
v -0.738217 0.118355 -20.890111
v -0.738217 0.118355 -22.366545
v 0.000000 0.063104 -20.684234
v 0.738217 0.118355 -20.890111
v 0.662176 0.026814 -20.966153
v 0.000000 0.063104 -22.572423
v 0.662176 0.026814 -22.290504
v 0.738217 0.118355 -22.366545
v 0.944094 0.063104 -21.628328
v -0.608407 17.418519 -21.019922
v -0.507018 17.809546 -21.628328
v -0.608407 17.418519 -22.236735
v -0.963291 14.938235 -21.628328
v 0.000000 14.938235 -20.665037
v 0.608407 17.418519 -21.019922
v 0.000000 17.809546 -21.121310
v 0.963291 14.938235 -21.628328
v 0.608407 17.418519 -22.236735
v 0.507018 17.809546 -21.628328
v 0.000000 17.809546 -22.135346
v 0.000000 14.938235 -22.591620
v 0.000000 0.006705 -22.254658
v 0.626330 0.006705 -21.628328
v 0.000000 0.006705 -21.001999
v -0.626330 0.006705 -21.628328
v 0.000000 2.256161 -20.621767
v 0.760489 8.540119 -20.867839
v -0.811209 17.418521 -21.628328
v 0.000000 17.418521 -20.817120
v 0.811209 17.418521 -21.628328
v 0.000000 17.418521 -22.439537
v 0.000000 17.939888 -21.628328
v 0.000000 0.000002 -21.628328
v 0.000000 8.540118 -20.614343
v 0.000000 8.540119 -22.642314
v 1.013985 8.540118 -21.628328
v -1.013985 8.540118 -21.628328
v -0.882901 0.026814 -21.628328
v -0.984289 0.118355 -21.628328
v 0.000000 0.118355 -20.644039
v 0.000000 0.026815 -20.745427
v 0.000000 0.026814 -22.511229
v 0.000000 0.118355 -22.612618
v 0.984289 0.118355 -21.628328
v 0.882901 0.026815 -21.628328
vt 0.807860 0.785381
vt 0.923198 0.906302
vt 0.908154 0.919958
vt 0.790154 0.802942
vt 0.933122 0.924653
vt 0.926045 0.937697
vt 0.913061 0.944884
vt 0.894626 0.935116
vt 0.772738 0.820796
vt 0.883997 0.952655
vt 0.917898 0.959243
vt 0.825842 0.768103
vt 0.772714 0.820818
vt 0.894599 0.935144
vt 0.913034 0.944912
vt 0.908127 0.919985
vt 0.926018 0.937725
vt 0.790131 0.802966
vt 0.807838 0.785406
vt 0.923171 0.906330
vt 0.933095 0.924681
vt 0.940592 0.895581
vt 0.825821 0.768128
vt 0.917926 0.959215
vt 0.938049 0.949654
vt 0.056876 0.100325
vt 0.041842 0.101276
vt 0.055575 0.076298
vt 0.069732 0.090004
vt 0.079453 0.076778
vt 0.069759 0.089977
vt 0.056905 0.100299
vt 0.041871 0.101251
vt 0.079427 0.076805
vt 0.196775 0.177630
vt 0.214793 0.158496
vt 0.444739 0.534094
vt 0.499938 0.478350
vt 0.159668 0.214916
vt 0.463112 0.515497
vt 0.518386 0.459821
vt 0.463110 0.515503
vt 0.499943 0.478348
vt 0.196805 0.177601
vt 0.214824 0.158468
vt 0.159640 0.214947
vt 0.178392 0.196457
vt 0.481520 0.496915
vt 0.178363 0.196487
vt 0.481516 0.496919
vt 0.087158 0.078739
vt 0.074783 0.094780
vt 0.089932 0.079686
vt 0.076781 0.096658
vt 0.060367 0.110748
vt 0.059241 0.108008
vt 0.093284 0.080975
vt 0.079322 0.099033
vt 0.061902 0.114040
vt 0.038782 0.122943
vt 0.095578 0.058617
vt 0.060397 0.110721
vt 0.061932 0.114013
vt 0.039004 0.112788
vt 0.059270 0.107982
vt 0.091195 0.058988
vt 0.038607 0.117292
vt 0.089959 0.079657
vt 0.087184 0.078710
vt 0.101207 0.058707
vt 0.093311 0.080946
vt 0.079350 0.099005
vt 0.076810 0.096630
vt 0.074811 0.094752
vt 0.141033 0.232990
vt 0.038753 0.122969
vt 0.095602 0.058587
vt 0.038974 0.112813
vt 0.079914 0.061952
vt 0.079891 0.061979
vt 0.091172 0.059017
vt 0.038636 0.117266
vt 0.101182 0.058737
vt 0.141060 0.232958
vt 0.444740 0.534103
vt 0.755603 0.838934
vt 0.755577 0.838955
vt 0.518379 0.459822
vt 0.055550 0.076323
vt 0.947466 0.929422
vt 0.938077 0.949626
vt 0.947494 0.929395
vt 0.884026 0.952628
vt 0.940620 0.895553
vn -0.706921 0.022906 0.706921
vn -0.700912 0.132079 0.700912
vn -0.991688 0.128667 -0.000000
vn -0.999766 0.021631 -0.000000
vn -0.465757 0.752424 0.465756
vn -0.508919 0.860815 -0.000002
vn -0.465757 0.752424 -0.465756
vn -0.700912 0.132079 -0.700912
vn -0.706921 0.022906 -0.706921
vn -0.000000 0.128667 0.991688
vn -0.000000 0.860815 0.508919
vn 0.000000 0.021631 0.999766
vn 0.706921 0.022906 0.706921
vn 0.700912 0.132078 0.700912
vn 0.465757 0.752424 0.465757
vn 0.991688 0.128667 0.000000
vn 0.508919 0.860814 -0.000001
vn 0.999766 0.021631 -0.000000
vn 0.706921 0.022906 -0.706921
vn 0.700912 0.132078 -0.700912
vn 0.465757 0.752424 -0.465757
vn -0.000000 0.128667 -0.991688
vn 0.000000 0.021631 -0.999766
vn -0.000001 0.860815 -0.508919
vn -0.000001 1.000000 -0.000002
vn -0.028939 -0.999162 -0.028939
vn 0.000000 -0.999370 -0.035493
vn 0.000000 -1.000000 0.000000
vn -0.035493 -0.999370 -0.000000
vn 0.028939 -0.999162 -0.028939
vn 0.035494 -0.999370 0.000000
vn 0.028939 -0.999162 0.028939
vn 0.000000 -0.999370 0.035494
vn -0.028939 -0.999162 0.028939
vn -0.707102 -0.003710 0.707102
vn 0.000000 -0.003498 0.999994
vn 0.000000 0.003361 0.999994
vn -0.707102 0.003564 0.707102
vn 0.707102 -0.003710 0.707102
vn 0.707102 0.003564 0.707102
vn 0.000000 0.003361 -0.999994
vn -0.707102 0.003564 -0.707102
vn 0.707102 0.003564 -0.707102
vn 0.707102 -0.003709 -0.707102
vn 0.000000 -0.003498 -0.999994
vn -0.707102 -0.003709 -0.707102
vn 0.999994 -0.003498 0.000000
vn 0.999994 0.003361 0.000000
vn -0.999994 -0.003498 0.000000
vn -0.999994 0.003361 0.000000
vn -0.157621 -0.974839 0.157621
vn -0.215727 -0.976454 0.000000
vn -0.477585 -0.737445 0.477585
vn -0.689326 -0.724451 0.000000
vn -0.477586 -0.737444 -0.477585
vn -0.157621 -0.974839 -0.157621
vn -0.706834 -0.027788 0.706834
vn -0.999642 -0.026768 0.000000
vn -0.706834 -0.027788 -0.706834
vn 0.000000 -0.026768 0.999642
vn -0.000000 -0.724452 0.689325
vn 0.477584 -0.737446 0.477584
vn 0.706834 -0.027788 0.706834
vn -0.000000 -0.976454 0.215727
vn 0.157620 -0.974839 0.157620
vn -0.000000 -0.976454 -0.215727
vn -0.000000 -0.724451 -0.689326
vn 0.477584 -0.737445 -0.477586
vn 0.157621 -0.974839 -0.157621
vn -0.000000 -0.026768 -0.999642
vn 0.706834 -0.027788 -0.706834
vn 0.999642 -0.026768 0.000000
vn 0.689325 -0.724452 -0.000000
vn 0.215727 -0.976454 0.000000
s 1
g CrackerStick_1_Single
usemtl initialShadingGroup
f 1/1/1 39/2/2 57/3/3 42/4/4
f 39/2/2 2/5/5 40/6/6 57/3/3
f 57/3/3 40/6/6 5/7/7 41/8/8
f 42/4/4 57/3/3 41/8/8 6/9/9
f 2/5/5 39/2/2 58/94/10 45/92/11
f 39/2/2 1/1/1 43/12/12 58/94/10
f 58/10/10 43/87/12 4/13/13 44/14/14
f 45/11/11 58/10/10 44/14/14 3/15/15
f 3/15/15 44/14/14 59/16/16 48/17/17
f 44/14/14 4/13/13 46/18/18 59/16/16
f 59/16/16 46/18/18 8/19/19 47/20/20
f 48/17/17 59/16/16 47/20/20 7/21/21
f 6/9/9 41/8/8 60/93/22 50/86/23
f 41/8/8 5/7/7 49/24/24 60/93/22
f 60/22/22 49/90/24 7/21/21 47/20/20
f 50/23/23 60/22/22 47/20/20 8/19/19
f 2/5/5 45/92/11 61/91/25 40/6/6
f 45/11/11 3/15/15 48/17/17 61/25/25
f 61/25/25 48/17/17 7/21/21 49/90/24
f 40/6/6 61/91/25 49/24/24 5/7/7
f 15/26/26 51/27/27 62/89/28 54/29/29
f 51/79/27 18/30/30 52/31/31 62/28/28
f 62/28/28 52/31/31 12/32/32 53/33/33
f 54/29/29 62/89/28 53/80/33 9/34/34
f 11/35/35 55/36/36 63/88/37 21/38/38
f 55/84/36 14/39/39 56/40/40 63/37/37
f 63/37/37 56/40/40 4/13/13 43/87/12
f 21/38/38 63/88/37 43/12/12 1/1/1
f 6/9/9 50/86/23 64/85/41 24/42/42
f 50/23/23 8/19/19 22/43/43 64/41/41
f 64/41/41 22/43/43 20/44/44 23/45/45
f 24/42/42 64/85/41 23/75/45 17/46/46
f 14/39/39 25/47/47 65/48/48 56/40/40
f 25/47/47 20/44/44 22/43/43 65/48/48
f 65/48/48 22/43/43 8/19/19 46/18/18
f 56/40/40 65/48/48 46/18/18 4/13/13
f 17/46/46 26/49/49 66/50/50 24/42/42
f 26/49/49 11/35/35 21/38/38 66/50/50
f 66/50/50 21/38/38 1/1/1 42/4/4
f 24/42/42 66/50/50 42/4/4 6/9/9
f 9/34/34 27/51/51 67/52/52 54/29/29
f 27/51/51 10/53/53 28/54/54 67/52/52
f 67/52/52 28/54/54 16/55/55 29/56/56
f 54/29/29 67/52/52 29/56/56 15/26/26
f 10/53/53 30/57/57 68/58/58 28/54/54
f 30/57/57 11/35/35 26/49/49 68/58/58
f 68/58/58 26/49/49 17/46/46 31/59/59
f 28/54/54 68/58/58 31/59/59 16/55/55
f 11/35/35 30/57/57 69/83/60 55/36/36
f 30/57/57 10/53/53 32/61/61 69/83/60
f 69/60/60 32/82/61 13/62/62 33/63/63
f 55/84/36 69/60/60 33/63/63 14/39/39
f 10/53/53 27/51/51 70/81/64 32/61/61
f 27/51/51 9/34/34 53/80/33 70/81/64
f 70/64/64 53/33/33 12/32/32 34/65/65
f 32/82/61 70/64/64 34/65/65 13/62/62
f 15/26/26 29/56/56 71/78/66 51/27/27
f 29/56/56 16/55/55 35/67/67 71/78/66
f 71/66/66 35/77/67 19/68/68 36/69/69
f 51/79/27 71/66/66 36/69/69 18/30/30
f 16/55/55 31/59/59 72/76/70 35/67/67
f 31/59/59 17/46/46 23/75/45 72/76/70
f 72/70/70 23/45/45 20/44/44 37/71/71
f 35/77/67 72/70/70 37/71/71 19/68/68
f 14/39/39 33/63/63 73/72/72 25/47/47
f 33/63/63 13/62/62 38/73/73 73/72/72
f 73/72/72 38/73/73 19/68/68 37/71/71
f 25/47/47 73/72/72 37/71/71 20/44/44
f 13/62/62 34/65/65 74/74/74 38/73/73
f 34/65/65 12/32/32 52/31/31 74/74/74
f 74/74/74 52/31/31 18/30/30 36/69/69
f 38/73/73 74/74/74 36/69/69 19/68/68
